<?xml version="1.0" encoding="utf-8"?>
<!-- Generator: Adobe Illustrator 16.0.0, SVG Export Plug-In . SVG Version: 6.00 Build 0)  -->
<!DOCTYPE svg PUBLIC "-//W3C//DTD SVG 1.1//EN" "http://www.w3.org/Graphics/SVG/1.1/DTD/svg11.dtd">
<svg version="1.1" id="Layer_1" xmlns="http://www.w3.org/2000/svg" xmlns:xlink="http://www.w3.org/1999/xlink" x="0px" y="0px"
	 width="252px" height="252px" viewBox="0 0 252 252" enable-background="new 0 0 252 252" xml:space="preserve">
<g>
	<path d="M232.863,177.701c-0.815-28.232-13.291-63.067-41.597-94.33c-0.782-0.876-1.585-1.748-2.395-2.619
		c-0.227-0.241-0.446-0.485-0.676-0.728c-13.347-14.213-30.199-27.689-51.21-39.242c-0.871-0.486-1.713-0.987-2.597-1.468
		C103.537,22.546,65.771,11.188,18.655,6.477c0,0,141.688,58.229,143.442,162.495c0.398,23.685-6.416,49.742-23.76,78.034
		c45.336-13.188,89.968-27.003,93.726-53.604c0.221-1.555,0.387-3.152,0.523-4.771C232.91,185.301,233.013,181.64,232.863,177.701z"
		/>
	<path d="M36.542,21.495c29.853,28.77,80.451,96.82,15.165,186.094c0,0,27.412-7.952,55.757-19.862
		c18.876-7.932,34.879-13.477,48.468-17.165C153.515,94.479,76.727,43.188,36.542,21.495z"/>
</g>
</svg>
